<?xml version="1.0" encoding="utf-8"?>
<!-- Generator: Adobe Illustrator 14.0.0, SVG Export Plug-In  -->
<!DOCTYPE svg PUBLIC "-//W3C//DTD SVG 1.1//EN" "http://www.w3.org/Graphics/SVG/1.1/DTD/svg11.dtd" [
	<!ENTITY ns_flows "http://ns.adobe.com/Flows/1.0/">
]>
<svg version="1.1"
	 xmlns="http://www.w3.org/2000/svg" xmlns:xlink="http://www.w3.org/1999/xlink" xmlns:a="http://ns.adobe.com/AdobeSVGViewerExtensions/3.0/"
	 x="0px" y="0px" width="500px" height="500px" viewBox="-13.815 -91.82 500 500" enable-background="new -13.815 -91.82 500 500"
	 xml:space="preserve">
<defs>
</defs>
<text transform="matrix(1 0 0 1 73.6357 292.1611)" fill="#3A3A3A" font-family="'Helvetica'" font-size="49.9043">TRAVEL WEFT</text>
<path fill="none" stroke="#13547C" stroke-width="20" stroke-linecap="round" stroke-linejoin="round" d="M138.668,136.094
	l61.036-61.1c3.887-3.892,9.164-6.079,14.665-6.08h0.004c5.503,0,10.778,2.185,14.667,6.073l77.151,77.151L427.466,30.865
	c8.102-8.099,21.229-8.1,29.33,0c8.101,8.1,8.101,21.231,0,29.331L320.858,196.136c-4.053,4.051-9.361,6.075-14.667,6.075
	c-5.308,0-10.614-2.024-14.667-6.075l-62.407-62.408L214.38,118.99l-14.903,14.914L152.29,181.13"/>
<path fill="none" stroke="#13547C" stroke-width="20" stroke-linecap="round" stroke-linejoin="round" d="M305.616,92.647
	L229.04,16.076c-8.1-8.102-21.23-8.102-29.33,0l-77.15,77.15l-77.154-77.15c-8.102-8.102-21.23-8.102-29.332,0
	c-8.098,8.1-8.098,21.229,0,29.331l91.818,91.814c0.508,0.507,1.031,0.982,1.575,1.425c7.605,6.203,18.577,6.203,26.181,0
	c0.545-0.442,1.066-0.918,1.574-1.425"/>
</svg>
