<?xml version="1.0" encoding="utf-8"?>
<!-- Generator: Adobe Illustrator 14.0.0, SVG Export Plug-In  -->
<!DOCTYPE svg PUBLIC "-//W3C//DTD SVG 1.1//EN" "http://www.w3.org/Graphics/SVG/1.1/DTD/svg11.dtd" [
	<!ENTITY ns_flows "http://ns.adobe.com/Flows/1.0/">
]>
<svg version="1.1"
	 xmlns="http://www.w3.org/2000/svg" xmlns:xlink="http://www.w3.org/1999/xlink" xmlns:a="http://ns.adobe.com/AdobeSVGViewerExtensions/3.0/"
	 x="0px" y="0px" width="481px" height="219px" viewBox="-3 -2.001 481 219" enable-background="new -3 -2.001 481 219"
	 xml:space="preserve">
<defs>
</defs>
<path fill="none" stroke="#13547C" stroke-width="20" stroke-linecap="round" stroke-linejoin="round" d="M138.667,136.093
	l61.036-61.1c3.887-3.892,9.164-6.079,14.665-6.08h0.004c5.503,0,10.778,2.185,14.667,6.073l77.151,77.151L427.464,30.865
	c8.104-8.099,21.229-8.1,29.33,0c8.102,8.1,8.102,21.231,0,29.331L320.857,196.136c-4.055,4.051-9.361,6.075-14.667,6.075
	c-5.31,0-10.614-2.024-14.669-6.075l-62.405-62.408l-14.737-14.738l-14.903,14.914l-47.186,47.225"/>
<path fill="none" stroke="#13547C" stroke-width="20" stroke-linecap="round" stroke-linejoin="round" d="M305.616,92.646
	l-76.576-76.57c-8.1-8.102-21.23-8.102-29.33,0l-77.15,77.15l-77.154-77.15c-8.102-8.102-21.23-8.102-29.332,0
	c-8.098,8.1-8.098,21.229,0,29.331l91.818,91.814c0.508,0.507,1.031,0.982,1.575,1.425c7.605,6.203,18.577,6.203,26.181,0
	c0.545-0.442,1.066-0.918,1.574-1.425"/>
</svg>
