<?xml version="1.0" encoding="utf-8"?>
<!-- Generator: Adobe Illustrator 14.0.0, SVG Export Plug-In  -->
<!DOCTYPE svg PUBLIC "-//W3C//DTD SVG 1.1//EN" "http://www.w3.org/Graphics/SVG/1.1/DTD/svg11.dtd" [
	<!ENTITY ns_flows "http://ns.adobe.com/Flows/1.0/">
]>
<svg version="1.1"
	 xmlns="http://www.w3.org/2000/svg" xmlns:xlink="http://www.w3.org/1999/xlink" xmlns:a="http://ns.adobe.com/AdobeSVGViewerExtensions/3.0/"
	 x="0px" y="0px" width="496px" height="330px" viewBox="-17 -17 496 330" enable-background="new -17 -17 496 330"
	 xml:space="preserve">
<defs>
</defs>
<g enable-background="new    ">
	<path fill="#3A3A3A" d="M103.461,256.366v4.265H91.399v31.531h-4.898V260.63H74.439v-4.265H103.461z"/>
	<path fill="#3A3A3A" d="M108.505,256.366h16.271c2.68,0,4.889,0.398,6.628,1.194c3.302,1.527,4.953,4.346,4.953,8.455
		c0,2.145-0.442,3.899-1.328,5.264c-0.886,1.364-2.125,2.461-3.716,3.29c1.397,0.568,2.449,1.315,3.156,2.241s1.1,2.429,1.182,4.508
		l0.17,4.801c0.049,1.364,0.163,2.38,0.341,3.046c0.292,1.137,0.812,1.868,1.56,2.193v0.804h-5.946
		c-0.163-0.309-0.292-0.707-0.39-1.194s-0.179-1.429-0.244-2.826l-0.292-5.97c-0.11-2.34-0.955-3.907-2.533-4.703
		c-0.9-0.438-2.312-0.658-4.238-0.658h-10.725v15.352h-4.849V256.366z M124.254,272.765c2.211,0,3.961-0.454,5.249-1.364
		s1.932-2.551,1.932-4.923c0-2.55-0.9-4.288-2.702-5.214c-0.964-0.487-2.251-0.731-3.862-0.731h-11.517v12.232H124.254z"/>
	<path fill="#3A3A3A" d="M154.405,256.366h5.474l12.992,35.796h-5.312l-3.737-10.722h-14.043l-3.882,10.722h-4.971L154.405,256.366z
		 M162.446,277.493l-5.511-15.814l-5.727,15.814H162.446z"/>
	<path fill="#3A3A3A" d="M176.404,256.366l10.283,30.483l10.161-30.483h5.434l-13.061,35.796h-5.142l-13.037-35.796H176.404z"/>
	<path fill="#3A3A3A" d="M207.314,256.366h25.976v4.387h-21.248v10.867h19.64v4.143h-19.64v12.135h21.614v4.265h-26.341V256.366z"/>
	<path fill="#3A3A3A" d="M240.137,256.366h4.849v31.531h17.958v4.265h-22.808V256.366z"/>
	<path fill="#3A3A3A" d="M282.306,256.366l6.747,29.082l8.091-29.082h5.242l8.109,29.137l6.748-29.137h5.316l-9.406,35.796h-5.092
		l-8.262-29.68l-8.309,29.68h-5.093l-9.357-35.796H282.306z"/>
	<path fill="#3A3A3A" d="M327.495,256.366h25.976v4.387h-21.249v10.867h19.641v4.143h-19.641v12.135h21.614v4.265h-26.341V256.366z"
		/>
	<path fill="#3A3A3A" d="M360.78,256.366h24.83v4.387h-19.981v10.867h17.569v4.265h-17.569v16.277h-4.849V256.366z"/>
	<path fill="#3A3A3A" d="M416.824,256.366v4.265h-12.062v31.531h-4.897V260.63h-12.062v-4.265H416.824z"/>
</g>
<path fill="none" stroke="#13547C" stroke-width="20" stroke-linecap="round" stroke-linejoin="round" d="M138.667,136.094
	l61.036-61.1c3.887-3.892,9.164-6.079,14.665-6.08h0.004c5.503,0,10.778,2.185,14.667,6.073l77.151,77.151L427.465,30.866
	c8.103-8.099,21.229-8.1,29.33,0c8.102,8.1,8.102,21.231,0,29.331l-135.938,135.94c-4.054,4.051-9.361,6.075-14.667,6.075
	c-5.309,0-10.614-2.024-14.668-6.075l-62.406-62.408l-14.737-14.738l-14.903,14.914L152.29,181.13"/>
<path fill="none" stroke="#13547C" stroke-width="20" stroke-linecap="round" stroke-linejoin="round" d="M305.616,92.647
	L229.04,16.077c-8.1-8.102-21.23-8.102-29.33,0l-77.15,77.15l-77.154-77.15c-8.102-8.102-21.23-8.102-29.332,0
	c-8.098,8.1-8.098,21.229,0,29.331l91.818,91.814c0.508,0.507,1.031,0.982,1.575,1.425c7.605,6.203,18.577,6.203,26.181,0
	c0.545-0.442,1.066-0.918,1.574-1.425"/>
</svg>
